<svg width="138" height="32" viewBox="0 0 138 32" fill="none" xmlns="http://www.w3.org/2000/svg">
<path d="M37.0156 15.0155C37.0156 12.8582 37.4974 10.9314 38.4608 9.23497C39.4452 7.51758 40.7752 6.18764 42.4508 5.24517C44.1473 4.28176 46.0429 3.80005 48.1373 3.80005C50.5879 3.80005 52.7347 4.42836 54.5779 5.68499C56.421 6.94162 57.7091 8.67996 58.4422 10.9H53.384C52.8813 9.85281 52.1692 9.06742 51.2476 8.54382C50.347 8.02023 49.2998 7.75843 48.1059 7.75843C46.8283 7.75843 45.6868 8.06212 44.6814 8.66949C43.697 9.25591 42.9221 10.0937 42.3566 11.1827C41.812 12.2718 41.5397 13.5494 41.5397 15.0155C41.5397 16.4606 41.812 17.7382 42.3566 18.8482C42.9221 19.9373 43.697 20.7855 44.6814 21.3929C45.6868 21.9793 46.8283 22.2725 48.1059 22.2725C49.2998 22.2725 50.347 22.0107 51.2476 21.4871C52.1692 20.9426 52.8813 20.1467 53.384 19.0995H58.4422C57.7091 21.3405 56.421 23.0893 54.5779 24.3459C52.7557 25.5816 50.6088 26.1995 48.1373 26.1995C46.0429 26.1995 44.1473 25.7282 42.4508 24.7858C40.7752 23.8223 39.4452 22.4924 38.4608 20.796C37.4974 19.0995 37.0156 17.1727 37.0156 15.0155Z" fill="#212121"/>
<path d="M69.2993 26.2937C67.6237 26.2937 66.1157 25.9272 64.7752 25.1942C63.4348 24.4402 62.3771 23.3825 61.6021 22.0212C60.8481 20.6598 60.4711 19.089 60.4711 17.3088C60.4711 15.5286 60.8585 13.9578 61.6335 12.5965C62.4294 11.2351 63.5081 10.1879 64.8695 9.45488C66.2309 8.7009 67.7494 8.32391 69.425 8.32391C71.1006 8.32391 72.6191 8.7009 73.9805 9.45488C75.3419 10.1879 76.4101 11.2351 77.1851 12.5965C77.981 13.9578 78.3789 15.5286 78.3789 17.3088C78.3789 19.089 77.9705 20.6598 77.1536 22.0212C76.3577 23.3825 75.2686 24.4402 73.8862 25.1942C72.5248 25.9272 70.9958 26.2937 69.2993 26.2937ZM69.2993 22.461C70.0952 22.461 70.8388 22.2725 71.5299 21.8955C72.2421 21.4976 72.8076 20.9111 73.2265 20.1362C73.6454 19.3613 73.8548 18.4188 73.8548 17.3088C73.8548 15.6542 73.415 14.3871 72.5353 13.5075C71.6766 12.6069 70.6188 12.1566 69.3622 12.1566C68.1055 12.1566 67.0477 12.6069 66.189 13.5075C65.3512 14.3871 64.9323 15.6542 64.9323 17.3088C64.9323 18.9634 65.3407 20.2409 66.1576 21.1415C66.9954 22.0212 68.0426 22.461 69.2993 22.461Z" fill="#212121"/>
<path d="M85.3754 11.3084C85.9409 10.3869 86.674 9.66432 87.5746 9.14072C88.4962 8.61713 89.5434 8.35533 90.7163 8.35533V12.9734H89.5539C88.1715 12.9734 87.1243 13.2981 86.4122 13.9473C85.721 14.5966 85.3754 15.7276 85.3754 17.3402V26.011H80.977V8.60665H85.3754V11.3084Z" fill="#212121"/>
<path d="M98.1715 12.2195V20.6389C98.1715 21.2253 98.3077 21.6547 98.58 21.9269C98.8732 22.1782 99.3549 22.3039 100.025 22.3039H102.067V26.011H99.3026C95.5953 26.011 93.7417 24.2098 93.7417 20.6075V12.2195H91.6682V8.60665H93.7417V4.3027H98.1715V8.60665H102.067V12.2195H98.1715Z" fill="#212121"/>
<path d="M120.782 16.9318C120.782 17.5601 120.741 18.1256 120.657 18.6283H107.933C108.037 19.8849 108.477 20.8693 109.252 21.5813C110.027 22.2934 110.98 22.6495 112.111 22.6495C113.745 22.6495 114.907 21.9479 115.599 20.5446H120.343C119.84 22.2201 118.876 23.6024 117.452 24.6915C116.028 25.7596 114.279 26.2937 112.205 26.2937C110.53 26.2937 109.022 25.9272 107.681 25.1942C106.362 24.4402 105.325 23.3825 104.571 22.0212C103.838 20.6598 103.471 19.089 103.471 17.3088C103.471 15.5076 103.838 13.9264 104.571 12.565C105.304 11.2037 106.33 10.1565 107.65 9.42346C108.97 8.69043 110.488 8.32391 112.205 8.32391C113.86 8.32391 115.337 8.67996 116.635 9.39205C117.955 10.1041 118.971 11.1199 119.683 12.4394C120.416 13.7379 120.782 15.2354 120.782 16.9318ZM116.227 15.6752C116.206 14.5442 115.798 13.6436 115.002 12.9734C114.206 12.2823 113.232 11.9367 112.08 11.9367C110.991 11.9367 110.069 12.2718 109.315 12.942C108.582 13.5913 108.132 14.5023 107.964 15.6752H116.227Z" fill="#212121"/>
<path d="M132.978 26.011L129.397 20.6075L126.223 26.011H121.511L127.197 17.2774L121.448 8.60665H126.412L129.962 13.9787L133.167 8.60665H137.879L132.161 17.2774L137.942 26.011H132.978Z" fill="#212121"/>
<path d="M62.5739 28.6676V28.9259H61.9026V31.0998H61.5811V28.9259H60.9062V28.6676H62.5739Z" fill="#212121"/>
<path d="M63.8601 29.1527C64.0061 29.1527 64.138 29.1841 64.2558 29.2469C64.3736 29.3074 64.4654 29.3993 64.5314 29.5226C64.5997 29.6459 64.6338 29.7959 64.6338 29.9727V31.0998H64.3159V30.0181C64.3159 29.8273 64.2676 29.6819 64.171 29.5819C64.0744 29.4795 63.9425 29.4283 63.7753 29.4283C63.6057 29.4283 63.4702 29.4807 63.369 29.5854C63.27 29.6901 63.2206 29.8424 63.2206 30.0425V31.0998H62.899V28.5176H63.2206V29.4597C63.2842 29.362 63.3713 29.2864 63.482 29.2329C63.5951 29.1794 63.7211 29.1527 63.8601 29.1527Z" fill="#212121"/>
<path d="M66.855 30.0704C66.855 30.1309 66.8515 30.1949 66.8444 30.2623H65.2968C65.3086 30.4508 65.3734 30.5985 65.4912 30.7055C65.6113 30.8102 65.7562 30.8625 65.9258 30.8625C66.0647 30.8625 66.1801 30.8311 66.272 30.7683C66.3662 30.7032 66.4322 30.6171 66.4699 30.5101H66.8161C66.7643 30.6939 66.6607 30.8439 66.5052 30.9602C66.3497 31.0742 66.1566 31.1312 65.9258 31.1312C65.742 31.1312 65.5771 31.0905 65.4311 31.0091C65.2874 30.9277 65.1744 30.8125 65.0919 30.6636C65.0095 30.5124 64.9683 30.3379 64.9683 30.1402C64.9683 29.9425 65.0083 29.7691 65.0884 29.6203C65.1685 29.4714 65.2804 29.3574 65.424 29.2783C65.5701 29.1969 65.7373 29.1562 65.9258 29.1562C66.1095 29.1562 66.272 29.1957 66.4133 29.2748C66.5547 29.3539 66.663 29.4632 66.7384 29.6028C66.8161 29.7401 66.855 29.8959 66.855 30.0704ZM66.5229 30.0041C66.5229 29.8831 66.4958 29.7796 66.4416 29.6935C66.3874 29.6051 66.3132 29.5388 66.219 29.4946C66.1271 29.4481 66.0247 29.4249 65.9116 29.4249C65.7491 29.4249 65.6101 29.476 65.4947 29.5784C65.3816 29.6807 65.3169 29.8227 65.3004 30.0041H66.5229Z" fill="#212121"/>
<path d="M67.9599 29.882C67.9599 29.6447 68.0141 29.4318 68.1224 29.2434C68.2308 29.0526 68.378 28.9038 68.5641 28.7967C68.7525 28.6897 68.961 28.6362 69.1894 28.6362C69.458 28.6362 69.6923 28.7002 69.8926 28.8282C70.0928 28.9561 70.2388 29.1376 70.3307 29.3725H69.9456C69.8772 29.226 69.7783 29.1131 69.6488 29.034C69.5216 28.9549 69.3685 28.9154 69.1894 28.9154C69.0175 28.9154 68.8632 28.9549 68.7266 29.034C68.59 29.1131 68.4828 29.226 68.4051 29.3725C68.3273 29.5167 68.2885 29.6866 68.2885 29.882C68.2885 30.0751 68.3273 30.2449 68.4051 30.3914C68.4828 30.5357 68.59 30.6473 68.7266 30.7264C68.8632 30.8055 69.0175 30.8451 69.1894 30.8451C69.3685 30.8451 69.5216 30.8067 69.6488 30.7299C69.7783 30.6508 69.8772 30.538 69.9456 30.3914H70.3307C70.2388 30.6241 70.0928 30.8044 69.8926 30.9323C69.6923 31.0579 69.458 31.1207 69.1894 31.1207C68.961 31.1207 68.7525 31.0684 68.5641 30.9637C68.378 30.8567 68.2308 30.709 68.1224 30.5206C68.0141 30.3321 67.9599 30.1193 67.9599 29.882Z" fill="#212121"/>
<path d="M72.5052 30.0704C72.5052 30.1309 72.5017 30.1949 72.4946 30.2623H70.9471C70.9589 30.4508 71.0236 30.5985 71.1414 30.7055C71.2615 30.8102 71.4064 30.8625 71.576 30.8625C71.715 30.8625 71.8304 30.8311 71.9222 30.7683C72.0165 30.7032 72.0824 30.6171 72.1201 30.5101H72.4664C72.4145 30.6939 72.3109 30.8439 72.1554 30.9602C72 31.0742 71.8068 31.1312 71.576 31.1312C71.3923 31.1312 71.2274 31.0905 71.0813 31.0091C70.9377 30.9277 70.8246 30.8125 70.7422 30.6636C70.6597 30.5124 70.6185 30.3379 70.6185 30.1402C70.6185 29.9425 70.6585 29.7691 70.7386 29.6203C70.8187 29.4714 70.9306 29.3574 71.0743 29.2783C71.2203 29.1969 71.3876 29.1562 71.576 29.1562C71.7597 29.1562 71.9222 29.1957 72.0636 29.2748C72.2049 29.3539 72.3133 29.4632 72.3886 29.6028C72.4664 29.7401 72.5052 29.8959 72.5052 30.0704ZM72.1731 30.0041C72.1731 29.8831 72.146 29.7796 72.0918 29.6935C72.0377 29.6051 71.9635 29.5388 71.8692 29.4946C71.7774 29.4481 71.6749 29.4249 71.5619 29.4249C71.3993 29.4249 71.2604 29.476 71.1449 29.5784C71.0319 29.6807 70.9671 29.8227 70.9506 30.0041H72.1731Z" fill="#212121"/>
<path d="M73.8023 29.1527C74.0379 29.1527 74.2287 29.2236 74.3747 29.3655C74.5207 29.5051 74.5938 29.7075 74.5938 29.9727V31.0998H74.2758V30.0181C74.2758 29.8273 74.2275 29.6819 74.1309 29.5819C74.0343 29.4795 73.9024 29.4283 73.7352 29.4283C73.5656 29.4283 73.4302 29.4807 73.3289 29.5854C73.2299 29.6901 73.1805 29.8424 73.1805 30.0425V31.0998H72.859V29.1876H73.1805V29.4597C73.2441 29.362 73.3301 29.2864 73.4384 29.2329C73.5491 29.1794 73.6704 29.1527 73.8023 29.1527Z" fill="#212121"/>
<path d="M75.4405 29.4493V30.5764C75.4405 30.6694 75.4605 30.7357 75.5006 30.7753C75.5406 30.8125 75.6101 30.8311 75.709 30.8311H75.9457V31.0998H75.656C75.477 31.0998 75.3427 31.0591 75.2532 30.9777C75.1637 30.8963 75.119 30.7625 75.119 30.5764V29.4493H74.8681V29.1876H75.119V28.706H75.4405V29.1876H75.9457V29.4493H75.4405Z" fill="#212121"/>
<path d="M76.5862 29.4981C76.6427 29.3888 76.7228 29.3039 76.8264 29.2434C76.9324 29.1829 77.0608 29.1527 77.2115 29.1527V29.4807H77.1267C76.7664 29.4807 76.5862 29.6738 76.5862 30.0599V31.0998H76.2646V29.1876H76.5862V29.4981Z" fill="#212121"/>
<path d="M77.3919 30.1367C77.3919 29.9413 77.4319 29.7703 77.512 29.6238C77.5921 29.4749 77.7016 29.3597 77.8406 29.2783C77.982 29.1969 78.1386 29.1562 78.3105 29.1562C78.4801 29.1562 78.6273 29.1922 78.7522 29.2643C78.877 29.3365 78.9701 29.4272 79.0313 29.5365V29.1876H79.3564V31.0998H79.0313V30.7439C78.9677 30.8555 78.8723 30.9486 78.7451 31.023C78.6203 31.0952 78.4742 31.1312 78.307 31.1312C78.1351 31.1312 77.9796 31.0893 77.8406 31.0056C77.7016 30.9218 77.5921 30.8044 77.512 30.6532C77.4319 30.5019 77.3919 30.3298 77.3919 30.1367ZM79.0313 30.1402C79.0313 29.996 79.0019 29.8703 78.943 29.7633C78.8841 29.6563 78.804 29.5749 78.7027 29.5191C78.6038 29.4609 78.4943 29.4318 78.3741 29.4318C78.254 29.4318 78.1445 29.4597 78.0455 29.5156C77.9466 29.5714 77.8677 29.6528 77.8088 29.7598C77.7499 29.8669 77.7205 29.9925 77.7205 30.1367C77.7205 30.2833 77.7499 30.4112 77.8088 30.5206C77.8677 30.6276 77.9466 30.7101 78.0455 30.7683C78.1445 30.8241 78.254 30.8521 78.3741 30.8521C78.4943 30.8521 78.6038 30.8241 78.7027 30.7683C78.804 30.7101 78.8841 30.6276 78.943 30.5206C79.0019 30.4112 79.0313 30.2844 79.0313 30.1402Z" fill="#212121"/>
<path d="M80.1506 28.5176V31.0998H79.829V28.5176H80.1506Z" fill="#212121"/>
<path d="M83.4354 31.0998H83.1139L81.8207 29.1631V31.0998H81.4992V28.6641H81.8207L83.1139 30.5973V28.6641H83.4354V31.0998Z" fill="#212121"/>
<path d="M85.6794 30.0704C85.6794 30.1309 85.6759 30.1949 85.6688 30.2623H84.1213C84.133 30.4508 84.1978 30.5985 84.3156 30.7055C84.4357 30.8102 84.5806 30.8625 84.7502 30.8625C84.8891 30.8625 85.0046 30.8311 85.0964 30.7683C85.1906 30.7032 85.2566 30.6171 85.2943 30.5101H85.6405C85.5887 30.6939 85.4851 30.8439 85.3296 30.9602C85.1742 31.0742 84.981 31.1312 84.7502 31.1312C84.5664 31.1312 84.4016 31.0905 84.2555 31.0091C84.1118 30.9277 83.9988 30.8125 83.9163 30.6636C83.8339 30.5124 83.7927 30.3379 83.7927 30.1402C83.7927 29.9425 83.8327 29.7691 83.9128 29.6203C83.9929 29.4714 84.1048 29.3574 84.2485 29.2783C84.3945 29.1969 84.5617 29.1562 84.7502 29.1562C84.9339 29.1562 85.0964 29.1957 85.2378 29.2748C85.3791 29.3539 85.4874 29.4632 85.5628 29.6028C85.6405 29.7401 85.6794 29.8959 85.6794 30.0704ZM85.3473 30.0041C85.3473 29.8831 85.3202 29.7796 85.266 29.6935C85.2118 29.6051 85.1376 29.5388 85.0434 29.4946C84.9516 29.4481 84.8491 29.4249 84.736 29.4249C84.5735 29.4249 84.4345 29.476 84.3191 29.5784C84.2061 29.6807 84.1413 29.8227 84.1248 30.0041H85.3473Z" fill="#212121"/>
<path d="M86.3547 29.4981C86.4112 29.3888 86.4913 29.3039 86.5949 29.2434C86.7009 29.1829 86.8293 29.1527 86.98 29.1527V29.4807H86.8952C86.5349 29.4807 86.3547 29.6738 86.3547 30.0599V31.0998H86.0331V29.1876H86.3547V29.4981Z" fill="#212121"/>
<path d="M88.0013 30.8067L88.6019 29.1876H88.9447L88.185 31.0998H87.8105L87.0509 29.1876H87.3971L88.0013 30.8067Z" fill="#212121"/>
<path d="M90.0348 31.1312C89.8535 31.1312 89.6886 31.0905 89.5402 31.0091C89.3941 30.9277 89.2787 30.8125 89.1939 30.6636C89.1115 30.5124 89.0703 30.3379 89.0703 30.1402C89.0703 29.9448 89.1127 29.7726 89.1975 29.6238C89.2846 29.4725 89.4024 29.3574 89.5508 29.2783C89.6992 29.1969 89.8652 29.1562 90.049 29.1562C90.2327 29.1562 90.3988 29.1969 90.5471 29.2783C90.6955 29.3574 90.8121 29.4714 90.8969 29.6203C90.9841 29.7691 91.0277 29.9425 91.0277 30.1402C91.0277 30.3379 90.9829 30.5124 90.8934 30.6636C90.8062 30.8125 90.6873 30.9277 90.5365 31.0091C90.3858 31.0905 90.2186 31.1312 90.0348 31.1312ZM90.0348 30.8521C90.1502 30.8521 90.2586 30.8253 90.3599 30.7718C90.4612 30.7183 90.5424 30.638 90.6037 30.531C90.6673 30.424 90.6991 30.2937 90.6991 30.1402C90.6991 29.9867 90.6685 29.8564 90.6072 29.7494C90.546 29.6424 90.4659 29.5633 90.367 29.5121C90.268 29.4586 90.1609 29.4318 90.0454 29.4318C89.9277 29.4318 89.8193 29.4586 89.7204 29.5121C89.6238 29.5633 89.5461 29.6424 89.4872 29.7494C89.4283 29.8564 89.3989 29.9867 89.3989 30.1402C89.3989 30.2961 89.4271 30.4275 89.4837 30.5345C89.5425 30.6415 89.6203 30.7218 89.7168 30.7753C89.8134 30.8265 89.9194 30.8521 90.0348 30.8521Z" fill="#212121"/>
<path d="M93.0969 29.1876V31.0998H92.7754V30.8172C92.7141 30.9149 92.6281 30.9916 92.5174 31.0475C92.4091 31.101 92.289 31.1277 92.1571 31.1277C92.0063 31.1277 91.8709 31.0975 91.7507 31.037C91.6306 30.9742 91.5352 30.8811 91.4645 30.7578C91.3962 30.6345 91.3621 30.4845 91.3621 30.3077V29.1876H91.6801V30.2658C91.6801 30.4543 91.7284 30.5996 91.8249 30.702C91.9215 30.802 92.0534 30.8521 92.2206 30.8521C92.3926 30.8521 92.528 30.7997 92.627 30.695C92.7259 30.5903 92.7754 30.438 92.7754 30.2379V29.1876H93.0969Z" fill="#212121"/>
<path d="M94.2545 31.1312C94.1061 31.1312 93.9731 31.1068 93.8553 31.0579C93.7375 31.0068 93.6445 30.937 93.5762 30.8486C93.5079 30.7578 93.4702 30.6543 93.4631 30.538H93.7952C93.8046 30.6334 93.8494 30.7113 93.9295 30.7718C94.0119 30.8323 94.1191 30.8625 94.251 30.8625C94.3735 30.8625 94.4701 30.8358 94.5407 30.7823C94.6114 30.7288 94.6467 30.6613 94.6467 30.5799C94.6467 30.4961 94.609 30.4345 94.5337 30.3949C94.4583 30.3531 94.3417 30.3123 94.1839 30.2728C94.0402 30.2356 93.9224 30.1984 93.8305 30.1611C93.741 30.1216 93.6633 30.0646 93.5974 29.9902C93.5338 29.9134 93.502 29.8134 93.502 29.6901C93.502 29.5923 93.5314 29.5028 93.5903 29.4214C93.6492 29.3399 93.7328 29.276 93.8411 29.2294C93.9495 29.1806 94.0732 29.1562 94.2121 29.1562C94.4265 29.1562 94.5996 29.2097 94.7315 29.3167C94.8634 29.4237 94.9341 29.5702 94.9435 29.7564H94.622C94.6149 29.6563 94.5737 29.5761 94.4983 29.5156C94.4253 29.4551 94.3264 29.4249 94.2015 29.4249C94.0861 29.4249 93.9943 29.4493 93.9259 29.4981C93.8576 29.547 93.8235 29.611 93.8235 29.6901C93.8235 29.7529 93.8435 29.8052 93.8835 29.8471C93.9259 29.8866 93.9778 29.9192 94.039 29.9448C94.1026 29.9681 94.1898 29.9948 94.3005 30.025C94.4394 30.0623 94.5525 30.0995 94.6397 30.1367C94.7268 30.1716 94.801 30.2251 94.8622 30.2972C94.9258 30.3693 94.9588 30.4636 94.9612 30.5799C94.9612 30.6846 94.9317 30.7788 94.8728 30.8625C94.814 30.9463 94.7303 31.0126 94.622 31.0614C94.516 31.108 94.3935 31.1312 94.2545 31.1312Z" fill="#212121"/>
<path d="M96.9965 31.1242C96.834 31.1242 96.688 31.0963 96.5584 31.0405C96.4312 30.9823 96.3311 30.9032 96.2581 30.8032C96.1851 30.7008 96.1474 30.5834 96.145 30.4508H96.4877C96.4995 30.5648 96.5466 30.6613 96.6291 30.7404C96.7139 30.8172 96.8364 30.8555 96.9965 30.8555C97.1496 30.8555 97.2698 30.8183 97.3569 30.7439C97.4464 30.6671 97.4912 30.5694 97.4912 30.4508C97.4912 30.3577 97.4653 30.2821 97.4134 30.2239C97.3616 30.1658 97.2968 30.1216 97.2191 30.0913C97.1414 30.0611 97.0366 30.0285 96.9047 29.9936C96.7421 29.9518 96.6114 29.9099 96.5125 29.868C96.4159 29.8261 96.3323 29.761 96.2616 29.6726C96.1933 29.5819 96.1592 29.4609 96.1592 29.3097C96.1592 29.1771 96.1933 29.0596 96.2616 28.9573C96.3299 28.8549 96.4253 28.7758 96.5478 28.72C96.6726 28.6641 96.8152 28.6362 96.9753 28.6362C97.2062 28.6362 97.3946 28.6932 97.5406 28.8072C97.689 28.9212 97.7727 29.0724 97.7915 29.2608H97.4382C97.4264 29.1678 97.3769 29.0864 97.2898 29.0166C97.2026 28.9445 97.0872 28.9084 96.9435 28.9084C96.8093 28.9084 96.6997 28.9433 96.6149 29.0131C96.5301 29.0806 96.4877 29.1759 96.4877 29.2992C96.4877 29.3876 96.5125 29.4597 96.5619 29.5156C96.6138 29.5714 96.6762 29.6144 96.7492 29.6447C96.8246 29.6726 96.9294 29.7052 97.0637 29.7424C97.2262 29.7866 97.3569 29.8308 97.4558 29.875C97.5548 29.9169 97.6396 29.9832 97.7102 30.0739C97.7809 30.1623 97.8162 30.2833 97.8162 30.4368C97.8162 30.5554 97.7844 30.6671 97.7208 30.7718C97.6572 30.8765 97.563 30.9614 97.4382 31.0265C97.3133 31.0917 97.1661 31.1242 96.9965 31.1242Z" fill="#212121"/>
<path d="M99.8864 29.1876L98.7204 32.0001H98.3883L98.7699 31.0789L97.9891 29.1876H98.3459L98.9536 30.7369L99.5543 29.1876H99.8864Z" fill="#212121"/>
<path d="M100.824 31.1312C100.676 31.1312 100.543 31.1068 100.425 31.0579C100.307 31.0068 100.214 30.937 100.146 30.8486C100.078 30.7578 100.04 30.6543 100.033 30.538H100.365C100.374 30.6334 100.419 30.7113 100.499 30.7718C100.582 30.8323 100.689 30.8625 100.821 30.8625C100.943 30.8625 101.04 30.8358 101.111 30.7823C101.181 30.7288 101.217 30.6613 101.217 30.5799C101.217 30.4961 101.179 30.4345 101.103 30.3949C101.028 30.3531 100.912 30.3123 100.754 30.2728C100.61 30.2356 100.492 30.1984 100.4 30.1611C100.311 30.1216 100.233 30.0646 100.167 29.9902C100.104 29.9134 100.072 29.8134 100.072 29.6901C100.072 29.5923 100.101 29.5028 100.16 29.4214C100.219 29.3399 100.303 29.276 100.411 29.2294C100.519 29.1806 100.643 29.1562 100.782 29.1562C100.996 29.1562 101.169 29.2097 101.301 29.3167C101.433 29.4237 101.504 29.5702 101.513 29.7564H101.192C101.185 29.6563 101.144 29.5761 101.068 29.5156C100.995 29.4551 100.896 29.4249 100.771 29.4249C100.656 29.4249 100.564 29.4493 100.496 29.4981C100.427 29.547 100.393 29.611 100.393 29.6901C100.393 29.7529 100.413 29.8052 100.453 29.8471C100.496 29.8866 100.548 29.9192 100.609 29.9448C100.672 29.9681 100.76 29.9948 100.87 30.025C101.009 30.0623 101.122 30.0995 101.209 30.1367C101.297 30.1716 101.371 30.2251 101.432 30.2972C101.496 30.3693 101.529 30.4636 101.531 30.5799C101.531 30.6846 101.502 30.7788 101.443 30.8625C101.384 30.9463 101.3 31.0126 101.192 31.0614C101.086 31.108 100.963 31.1312 100.824 31.1312Z" fill="#212121"/>
<path d="M102.306 29.4493V30.5764C102.306 30.6694 102.326 30.7357 102.366 30.7753C102.407 30.8125 102.476 30.8311 102.575 30.8311H102.812V31.0998H102.522C102.343 31.0998 102.209 31.0591 102.119 30.9777C102.03 30.8963 101.985 30.7625 101.985 30.5764V29.4493H101.734V29.1876H101.985V28.706H102.306V29.1876H102.812V29.4493H102.306Z" fill="#212121"/>
<path d="M104.897 30.0704C104.897 30.1309 104.894 30.1949 104.887 30.2623H103.339C103.351 30.4508 103.416 30.5985 103.533 30.7055C103.653 30.8102 103.798 30.8625 103.968 30.8625C104.107 30.8625 104.222 30.8311 104.314 30.7683C104.408 30.7032 104.474 30.6171 104.512 30.5101H104.858C104.806 30.6939 104.703 30.8439 104.547 30.9602C104.392 31.0742 104.199 31.1312 103.968 31.1312C103.784 31.1312 103.619 31.0905 103.473 31.0091C103.33 30.9277 103.217 30.8125 103.134 30.6636C103.052 30.5124 103.01 30.3379 103.01 30.1402C103.01 29.9425 103.05 29.7691 103.131 29.6203C103.211 29.4714 103.323 29.3574 103.466 29.2783C103.612 29.1969 103.779 29.1562 103.968 29.1562C104.152 29.1562 104.314 29.1957 104.456 29.2748C104.597 29.3539 104.705 29.4632 104.781 29.6028C104.858 29.7401 104.897 29.8959 104.897 30.0704ZM104.565 30.0041C104.565 29.8831 104.538 29.7796 104.484 29.6935C104.43 29.6051 104.355 29.5388 104.261 29.4946C104.169 29.4481 104.067 29.4249 103.954 29.4249C103.791 29.4249 103.652 29.476 103.537 29.5784C103.424 29.6807 103.359 29.8227 103.343 30.0041H104.565Z" fill="#212121"/>
<path d="M107.579 29.1527C107.73 29.1527 107.864 29.1841 107.982 29.2469C108.1 29.3074 108.193 29.3993 108.261 29.5226C108.33 29.6459 108.364 29.7959 108.364 29.9727V31.0998H108.046V30.0181C108.046 29.8273 107.997 29.6819 107.901 29.5819C107.807 29.4795 107.678 29.4283 107.516 29.4283C107.348 29.4283 107.215 29.4818 107.116 29.5889C107.018 29.6935 106.968 29.8459 106.968 30.046V31.0998H106.65V30.0181C106.65 29.8273 106.602 29.6819 106.505 29.5819C106.411 29.4795 106.283 29.4283 106.12 29.4283C105.953 29.4283 105.82 29.4818 105.721 29.5889C105.622 29.6935 105.572 29.8459 105.572 30.046V31.0998H105.251V29.1876H105.572V29.4632C105.636 29.3632 105.721 29.2864 105.827 29.2329C105.935 29.1794 106.054 29.1527 106.184 29.1527C106.346 29.1527 106.49 29.1887 106.615 29.2608C106.74 29.333 106.833 29.4388 106.894 29.5784C106.948 29.4435 107.038 29.3388 107.162 29.2643C107.287 29.1899 107.426 29.1527 107.579 29.1527Z" fill="#212121"/>
<path d="M110.48 29.4493H110.073V31.0998H109.752V29.4493H109.501V29.1876H109.752V29.0515C109.752 28.8375 109.807 28.6816 109.918 28.5839C110.031 28.4839 110.211 28.4338 110.458 28.4338V28.699C110.317 28.699 110.217 28.727 110.158 28.7828C110.102 28.8363 110.073 28.9259 110.073 29.0515V29.1876H110.48V29.4493Z" fill="#212121"/>
<path d="M111.628 31.1312C111.447 31.1312 111.282 31.0905 111.134 31.0091C110.988 30.9277 110.872 30.8125 110.787 30.6636C110.705 30.5124 110.664 30.3379 110.664 30.1402C110.664 29.9448 110.706 29.7726 110.791 29.6238C110.878 29.4725 110.996 29.3574 111.144 29.2783C111.293 29.1969 111.459 29.1562 111.642 29.1562C111.826 29.1562 111.992 29.1969 112.141 29.2783C112.289 29.3574 112.406 29.4714 112.49 29.6203C112.578 29.7691 112.621 29.9425 112.621 30.1402C112.621 30.3379 112.576 30.5124 112.487 30.6636C112.4 30.8125 112.281 30.9277 112.13 31.0091C111.979 31.0905 111.812 31.1312 111.628 31.1312ZM111.628 30.8521C111.744 30.8521 111.852 30.8253 111.953 30.7718C112.055 30.7183 112.136 30.638 112.197 30.531C112.261 30.424 112.293 30.2937 112.293 30.1402C112.293 29.9867 112.262 29.8564 112.201 29.7494C112.139 29.6424 112.059 29.5633 111.96 29.5121C111.861 29.4586 111.754 29.4318 111.639 29.4318C111.521 29.4318 111.413 29.4586 111.314 29.5121C111.217 29.5633 111.14 29.6424 111.081 29.7494C111.022 29.8564 110.992 29.9867 110.992 30.1402C110.992 30.2961 111.021 30.4275 111.077 30.5345C111.136 30.6415 111.214 30.7218 111.31 30.7753C111.407 30.8265 111.513 30.8521 111.628 30.8521Z" fill="#212121"/>
<path d="M113.295 29.4981C113.351 29.3888 113.431 29.3039 113.535 29.2434C113.641 29.1829 113.769 29.1527 113.92 29.1527V29.4807H113.835C113.475 29.4807 113.295 29.6738 113.295 30.0599V31.0998H112.973V29.1876H113.295V29.4981Z" fill="#212121"/>
<path d="M116.76 29.1876L115.594 32.0001H115.261L115.643 31.0789L114.862 29.1876H115.219L115.827 30.7369L116.427 29.1876H116.76Z" fill="#212121"/>
<path d="M117.857 31.1312C117.675 31.1312 117.51 31.0905 117.362 31.0091C117.216 30.9277 117.1 30.8125 117.016 30.6636C116.933 30.5124 116.892 30.3379 116.892 30.1402C116.892 29.9448 116.934 29.7726 117.019 29.6238C117.106 29.4725 117.224 29.3574 117.372 29.2783C117.521 29.1969 117.687 29.1562 117.871 29.1562C118.054 29.1562 118.22 29.1969 118.369 29.2783C118.517 29.3574 118.634 29.4714 118.719 29.6203C118.806 29.7691 118.849 29.9425 118.849 30.1402C118.849 30.3379 118.805 30.5124 118.715 30.6636C118.628 30.8125 118.509 30.9277 118.358 31.0091C118.207 31.0905 118.04 31.1312 117.857 31.1312ZM117.857 30.8521C117.972 30.8521 118.08 30.8253 118.182 30.7718C118.283 30.7183 118.364 30.638 118.425 30.531C118.489 30.424 118.521 30.2937 118.521 30.1402C118.521 29.9867 118.49 29.8564 118.429 29.7494C118.368 29.6424 118.288 29.5633 118.189 29.5121C118.09 29.4586 117.983 29.4318 117.867 29.4318C117.749 29.4318 117.641 29.4586 117.542 29.5121C117.445 29.5633 117.368 29.6424 117.309 29.7494C117.25 29.8564 117.221 29.9867 117.221 30.1402C117.221 30.2961 117.249 30.4275 117.305 30.5345C117.364 30.6415 117.442 30.7218 117.539 30.7753C117.635 30.8265 117.741 30.8521 117.857 30.8521Z" fill="#212121"/>
<path d="M120.919 29.1876V31.0998H120.597V30.8172C120.536 30.9149 120.45 30.9916 120.339 31.0475C120.231 31.101 120.111 31.1277 119.979 31.1277C119.828 31.1277 119.693 31.0975 119.572 31.037C119.452 30.9742 119.357 30.8811 119.286 30.7578C119.218 30.6345 119.184 30.4845 119.184 30.3077V29.1876H119.502V30.2658C119.502 30.4543 119.55 30.5996 119.647 30.702C119.743 30.802 119.875 30.8521 120.042 30.8521C120.214 30.8521 120.35 30.7997 120.449 30.695C120.548 30.5903 120.597 30.438 120.597 30.2379V29.1876H120.919Z" fill="#212121"/>
<path d="M121.712 29.4981C121.769 29.3888 121.849 29.3039 121.953 29.2434C122.059 29.1829 122.187 29.1527 122.338 29.1527V29.4807H122.253C121.892 29.4807 121.712 29.6738 121.712 30.0599V31.0998H121.391V29.1876H121.712V29.4981Z" fill="#212121"/>
<path d="M124.195 31.1312C124.047 31.1312 123.913 31.1068 123.796 31.0579C123.678 31.0068 123.585 30.937 123.517 30.8486C123.448 30.7578 123.411 30.6543 123.403 30.538H123.736C123.745 30.6334 123.79 30.7113 123.87 30.7718C123.952 30.8323 124.059 30.8625 124.191 30.8625C124.314 30.8625 124.41 30.8358 124.481 30.7823C124.552 30.7288 124.587 30.6613 124.587 30.5799C124.587 30.4961 124.549 30.4345 124.474 30.3949C124.399 30.3531 124.282 30.3123 124.124 30.2728C123.981 30.2356 123.863 30.1984 123.771 30.1611C123.681 30.1216 123.604 30.0646 123.538 29.9902C123.474 29.9134 123.442 29.8134 123.442 29.6901C123.442 29.5923 123.472 29.5028 123.531 29.4214C123.59 29.3399 123.673 29.276 123.782 29.2294C123.89 29.1806 124.014 29.1562 124.153 29.1562C124.367 29.1562 124.54 29.2097 124.672 29.3167C124.804 29.4237 124.874 29.5702 124.884 29.7564H124.562C124.555 29.6563 124.514 29.5761 124.439 29.5156C124.366 29.4551 124.267 29.4249 124.142 29.4249C124.026 29.4249 123.935 29.4493 123.866 29.4981C123.798 29.547 123.764 29.611 123.764 29.6901C123.764 29.7529 123.784 29.8052 123.824 29.8471C123.866 29.8866 123.918 29.9192 123.979 29.9448C124.043 29.9681 124.13 29.9948 124.241 30.025C124.38 30.0623 124.493 30.0995 124.58 30.1367C124.667 30.1716 124.741 30.2251 124.803 30.2972C124.866 30.3693 124.899 30.4636 124.902 30.5799C124.902 30.6846 124.872 30.7788 124.813 30.8625C124.754 30.9463 124.671 31.0126 124.562 31.0614C124.456 31.108 124.334 31.1312 124.195 31.1312Z" fill="#212121"/>
<path d="M126.129 31.1312C125.948 31.1312 125.783 31.0905 125.635 31.0091C125.489 30.9277 125.373 30.8125 125.288 30.6636C125.206 30.5124 125.165 30.3379 125.165 30.1402C125.165 29.9448 125.207 29.7726 125.292 29.6238C125.379 29.4725 125.497 29.3574 125.645 29.2783C125.794 29.1969 125.96 29.1562 126.143 29.1562C126.327 29.1562 126.493 29.1969 126.642 29.2783C126.79 29.3574 126.906 29.4714 126.991 29.6203C127.078 29.7691 127.122 29.9425 127.122 30.1402C127.122 30.3379 127.077 30.5124 126.988 30.6636C126.901 30.8125 126.782 30.9277 126.631 31.0091C126.48 31.0905 126.313 31.1312 126.129 31.1312ZM126.129 30.8521C126.245 30.8521 126.353 30.8253 126.454 30.7718C126.556 30.7183 126.637 30.638 126.698 30.531C126.762 30.424 126.793 30.2937 126.793 30.1402C126.793 29.9867 126.763 29.8564 126.702 29.7494C126.64 29.6424 126.56 29.5633 126.461 29.5121C126.362 29.4586 126.255 29.4318 126.14 29.4318C126.022 29.4318 125.914 29.4586 125.815 29.5121C125.718 29.5633 125.64 29.6424 125.582 29.7494C125.523 29.8564 125.493 29.9867 125.493 30.1402C125.493 30.2961 125.521 30.4275 125.578 30.5345C125.637 30.6415 125.715 30.7218 125.811 30.7753C125.908 30.8265 126.014 30.8521 126.129 30.8521Z" fill="#212121"/>
<path d="M128.262 29.4493H127.856V31.0998H127.534V29.4493H127.283V29.1876H127.534V29.0515C127.534 28.8375 127.59 28.6816 127.7 28.5839C127.813 28.4839 127.993 28.4338 128.241 28.4338V28.699C128.099 28.699 127.999 28.727 127.94 28.7828C127.884 28.8363 127.856 28.9259 127.856 29.0515V29.1876H128.262V29.4493Z" fill="#212121"/>
<path d="M128.958 29.4493V30.5764C128.958 30.6694 128.978 30.7357 129.018 30.7753C129.059 30.8125 129.128 30.8311 129.227 30.8311H129.464V31.0998H129.174C128.995 31.0998 128.861 31.0591 128.771 30.9777C128.682 30.8963 128.637 30.7625 128.637 30.5764V29.4493H128.386V29.1876H128.637V28.706H128.958V29.1876H129.464V29.4493H128.958Z" fill="#212121"/>
<path d="M132.362 29.1876L131.758 31.0998H131.425L130.959 29.5819L130.493 31.0998H130.161L129.553 29.1876H129.881L130.327 30.7927L130.807 29.1876H131.136L131.606 30.7962L132.044 29.1876H132.362Z" fill="#212121"/>
<path d="M132.49 30.1367C132.49 29.9413 132.53 29.7703 132.61 29.6238C132.69 29.4749 132.8 29.3597 132.939 29.2783C133.08 29.1969 133.237 29.1562 133.409 29.1562C133.578 29.1562 133.726 29.1922 133.85 29.2643C133.975 29.3365 134.068 29.4272 134.13 29.5365V29.1876H134.455V31.0998H134.13V30.7439C134.066 30.8555 133.971 30.9486 133.843 31.023C133.718 31.0952 133.572 31.1312 133.405 31.1312C133.233 31.1312 133.078 31.0893 132.939 31.0056C132.8 30.9218 132.69 30.8044 132.61 30.6532C132.53 30.5019 132.49 30.3298 132.49 30.1367ZM134.13 30.1402C134.13 29.996 134.1 29.8703 134.041 29.7633C133.982 29.6563 133.902 29.5749 133.801 29.5191C133.702 29.4609 133.592 29.4318 133.472 29.4318C133.352 29.4318 133.243 29.4597 133.144 29.5156C133.045 29.5714 132.966 29.6528 132.907 29.7598C132.848 29.8669 132.819 29.9925 132.819 30.1367C132.819 30.2833 132.848 30.4112 132.907 30.5206C132.966 30.6276 133.045 30.7101 133.144 30.7683C133.243 30.8241 133.352 30.8521 133.472 30.8521C133.592 30.8521 133.702 30.8241 133.801 30.7683C133.902 30.7101 133.982 30.6276 134.041 30.5206C134.1 30.4112 134.13 30.2844 134.13 30.1402Z" fill="#212121"/>
<path d="M135.249 29.4981C135.305 29.3888 135.385 29.3039 135.489 29.2434C135.595 29.1829 135.723 29.1527 135.874 29.1527V29.4807H135.789C135.429 29.4807 135.249 29.6738 135.249 30.0599V31.0998H134.927V29.1876H135.249V29.4981Z" fill="#212121"/>
<path d="M137.941 30.0704C137.941 30.1309 137.938 30.1949 137.931 30.2623H136.383C136.395 30.4508 136.46 30.5985 136.577 30.7055C136.698 30.8102 136.842 30.8625 137.012 30.8625C137.151 30.8625 137.266 30.8311 137.358 30.7683C137.452 30.7032 137.518 30.6171 137.556 30.5101H137.902C137.851 30.6939 137.747 30.8439 137.591 30.9602C137.436 31.0742 137.243 31.1312 137.012 31.1312C136.828 31.1312 136.663 31.0905 136.517 31.0091C136.374 30.9277 136.261 30.8125 136.178 30.6636C136.096 30.5124 136.055 30.3379 136.055 30.1402C136.055 29.9425 136.095 29.7691 136.175 29.6203C136.255 29.4714 136.367 29.3574 136.51 29.2783C136.656 29.1969 136.824 29.1562 137.012 29.1562C137.196 29.1562 137.358 29.1957 137.5 29.2748C137.641 29.3539 137.749 29.4632 137.825 29.6028C137.902 29.7401 137.941 29.8959 137.941 30.0704ZM137.609 30.0041C137.609 29.8831 137.582 29.7796 137.528 29.6935C137.474 29.6051 137.399 29.5388 137.305 29.4946C137.213 29.4481 137.111 29.4249 136.998 29.4249C136.835 29.4249 136.696 29.476 136.581 29.5784C136.468 29.6807 136.403 29.8227 136.387 30.0041H137.609Z" fill="#212121"/>
<path d="M11.8894 5.18739L13.7932 5.92035C13.8666 5.94807 14.0019 6.00514 14.046 6.05732C14.4512 6.00269 14.7349 5.99046 15.1548 5.99046C18.8891 5.99046 22.1064 8.20727 23.5618 11.3959L23.5651 11.3959C23.8496 11.978 24.232 12.5243 24.7164 13.0078C26.2296 14.521 28.3479 15.0583 30.2925 14.6237C30.246 13.5124 30.078 12.4322 29.8049 11.3959L29.8065 11.3959C29.7894 11.3307 29.7707 11.2663 29.7527 11.2011C29.7511 11.1945 29.7486 11.1872 29.747 11.1807C29.6459 10.8179 29.531 10.46 29.4038 10.1086C29.4021 10.1053 29.4013 10.1012 29.3997 10.098C29.3589 9.98544 29.3165 9.87375 29.2733 9.76287C29.2709 9.75635 29.2676 9.74901 29.2651 9.74249C27.058 4.10956 21.5732 0.118652 15.1548 0.118652C12.5824 0.118652 10.1592 0.760295 8.03771 1.89112C8.89952 3.38557 10.2522 4.55634 11.8894 5.18739Z" fill="#FF6600"/>
<path d="M29.2651 20.7976C29.2676 20.7911 29.2709 20.7838 29.2733 20.7772C29.3165 20.6664 29.3589 20.5547 29.3997 20.4422C29.4013 20.4389 29.4021 20.4348 29.4038 20.4316C29.5309 20.0802 29.6459 19.7231 29.747 19.3594C29.7486 19.3529 29.7511 19.3456 29.7527 19.3391C29.7707 19.2746 29.7894 19.2094 29.8065 19.1442L29.8049 19.1442C30.078 18.1071 30.246 17.0277 30.2925 15.9164C28.3479 15.4819 26.2296 16.0191 24.7164 17.5323C24.2329 18.0158 23.8496 18.5621 23.5651 19.1442L23.5618 19.1442C22.1064 22.3337 18.8899 24.5497 15.1548 24.5497C10.1462 24.5497 6.06947 20.5628 5.9227 15.5903L5.92597 15.5903C5.92189 15.4843 5.91944 15.3775 5.91944 15.2707C5.91944 15.1639 5.92189 15.0571 5.92597 14.9511L5.9227 14.9511C5.93901 14.4105 6.00098 13.8822 6.10616 13.3686C6.0923 13.3515 6.0817 13.3319 6.07354 13.3083L5.42453 11.3744C4.85868 9.68832 3.72454 8.26969 2.24062 7.3435C0.874103 9.5652 0.0644682 12.1652 0.00657811 14.9503C0.00413289 15.0563 0.0025021 15.1631 0.00250209 15.2699C0.00250173 23.6373 6.78615 30.4215 15.1548 30.4215C21.5724 30.4215 27.0572 26.4306 29.266 20.796L29.2651 20.7976Z" fill="#FF6600"/>
<path opacity="0.3" d="M24.7164 17.5299C24.2329 18.0134 23.8496 18.5597 23.5651 19.1418L23.5618 19.1418C22.1064 22.3312 18.8899 24.5472 15.1548 24.5472C14.218 24.5472 13.3138 24.4078 12.4618 24.1486C8.49919 24.4649 4.42899 23.1082 1.39837 20.0777C1.07468 19.7541 0.770553 19.4182 0.485184 19.0717C2.17213 25.599 8.1013 30.4199 15.1556 30.4199C21.5732 30.4199 27.058 26.429 29.2668 20.7944C29.2692 20.7879 29.2725 20.7805 29.2749 20.774C29.3181 20.6631 29.3605 20.5514 29.4013 20.4389C29.4029 20.4357 29.4038 20.4316 29.4054 20.4283C29.5326 20.0769 29.6475 19.7198 29.7486 19.3562C29.7503 19.3497 29.7527 19.3423 29.7544 19.3358C29.7723 19.2714 29.791 19.2062 29.8082 19.141L29.8065 19.141C30.078 18.1047 30.246 17.0253 30.2925 15.914C28.3479 15.4794 26.2296 16.0167 24.7164 17.5299Z" fill="url(#paint0_linear_186_3628)"/>
<path d="M12.1415 10.3234L11.676 10.4799C11.159 10.6536 10.7465 11.0482 10.55 11.5569L10.373 12.0151C10.3567 12.0567 10.298 12.0551 10.2842 12.0135L10.1276 11.5479C9.95395 11.031 9.55932 10.6185 9.05055 10.422L8.59233 10.2451C8.55074 10.2288 8.55238 10.1701 8.59396 10.1562L9.05952 9.99968C9.57645 9.82602 9.98901 9.43141 10.1855 8.92266L10.3624 8.46446C10.3787 8.42288 10.4374 8.42451 10.4513 8.46609L10.6079 8.93163C10.7815 9.44853 11.1761 9.86108 11.6849 10.0576L12.1431 10.2345C12.1847 10.2508 12.1839 10.3095 12.1415 10.3234Z" fill="#FF6600"/>
<path d="M13.7932 5.92037C13.8674 5.94891 14.0207 6.01902 14.046 6.05816C14.4512 6.00353 14.7349 5.9913 15.1548 5.9913C18.8891 5.9913 22.1064 8.20811 23.5618 11.3968L23.5651 11.3968C23.8496 11.9789 24.232 12.5251 24.7164 13.0086C26.2296 14.5218 28.3479 15.0591 30.2925 14.6245C30.246 13.5133 30.078 12.433 29.8049 11.3968L29.8065 11.3968C29.7894 11.3315 29.7707 11.2671 29.7527 11.2019C29.7511 11.1954 29.7486 11.188 29.747 11.1815C29.6459 10.8187 29.531 10.4608 29.4038 10.1094C29.4021 10.1061 29.4013 10.1021 29.3997 10.0988C29.3589 9.98629 29.3165 9.87459 29.2733 9.76371C29.2709 9.75719 29.2676 9.74985 29.2651 9.74333C28.5933 8.02874 27.6173 6.46744 26.4049 5.123C22.3739 2.98854 17.4158 3.22987 13.5926 5.8421L13.7924 5.91874L13.7932 5.92037Z" fill="url(#paint1_linear_186_3628)"/>
<path d="M12.2555 6.21703L10.7226 6.73148C9.02185 7.30301 7.66349 8.6026 7.01855 10.2764L6.43721 11.7847C6.38421 11.9209 6.19016 11.916 6.14369 11.7782L5.62921 10.2454C5.05765 8.54472 3.75799 7.18642 2.0841 6.54152L0.575712 5.96102C0.43955 5.90803 0.443628 5.71398 0.582236 5.66751L2.11508 5.15306C3.81588 4.58153 5.17424 3.28194 5.81918 1.60812L6.3997 0.0998107C6.4527 -0.0363448 6.64675 -0.0322683 6.69323 0.106333L7.20771 1.6391C7.77926 3.33982 9.07892 4.69812 10.7528 5.34302L12.2612 5.92352C12.3982 5.9757 12.3933 6.16974 12.2547 6.21703L12.2555 6.21703Z" fill="#FF6600"/>
<defs>
<linearGradient id="paint0_linear_186_3628" x1="30.2925" y1="23.0941" x2="0.485185" y2="23.0941" gradientUnits="userSpaceOnUse">
<stop stop-color="#FF6C03"/>
<stop offset="1" stop-color="#994102"/>
</linearGradient>
<linearGradient id="paint1_linear_186_3628" x1="30.2925" y1="9.22728" x2="13.5926" y2="9.22728" gradientUnits="userSpaceOnUse">
<stop stop-color="#FF6C03"/>
<stop offset="1" stop-color="#994102"/>
</linearGradient>
</defs>
</svg>
